# xmcd
#
# Track frame offsets: 
#        150
#        13527
#        26112
#        37875
#        52012
#        62602
#        74335
#        85897
#        97362
#        109937
#        120622
#        133982
#        146197
#        157202
#        171237
#        182015
#        192525
#        204705
#        217557
#        229357
#        240742
#        251427
#        264142
#        278562
#
# Disc length: 4204 seconds
#
# Revision: 10
# Processed by: cddbd v1.5.2PL0 Copyright (c) Steve Scherf et al.
# Submitted via: ExactAudioCopyFreeDBPlugin 1.0
#
DISCID=6a106a18
DTITLE=Wilson Pickett - A Man And A Half:  The Best of Wilson Pickett
DYEAR=1992
DGENRE=Soul
TTITLE0=I Found a Love (as lead vocalist for The Falcons)
TTITLE1=Let Me Be Your Boy
TTITLE2=If You Need Me
TTITLE3=It's Too Late
TTITLE4=I'm Gonna Cry (Cry Baby)
TTITLE5=Come Home Baby
TTITLE6=In the Midnight Hour
TTITLE7=Don't Fight It (unedited single master)
TTITLE8=I'm Not Tired
TTITLE9=That's a Man's Way
TTITLE10=634-5789 (Soulsville, U.S.A.)
TTITLE11=Ninety-Nine and a Half (Won't Do)
TTITLE12=Land of 1000 Dances
TTITLE13=Mustang Sally
TTITLE14=Three-Time Loser
TTITLE15=Everybody Needs Somebody to Love
TTITLE16=Soul Dance Number Three
TTITLE17=You Can't Stand Alone
TTITLE18=Funky Broadway
TTITLE19=I'm in Love
TTITLE20=Stagger Lee
TTITLE21=Jealous Love
TTITLE22=I've Come a Long Way
TTITLE23=In the Midnight Hour (Live and Burnin') (ft Booker T. and the M.G
TTITLE23='s and The Mar-Key Horns)
EXTD=Rhino 8122-70287-2 YEAR: 1992
EXTT0=
EXTT1=
EXTT2=
EXTT3=
EXTT4=
EXTT5=
EXTT6=
EXTT7=
EXTT8=
EXTT9=
EXTT10=
EXTT11=
EXTT12=
EXTT13=
EXTT14=
EXTT15=
EXTT16=
EXTT17=
EXTT18=
EXTT19=
EXTT20=
EXTT21=
EXTT22=
EXTT23=
PLAYORDER=
